<?xml version="1.0" encoding="utf-8"?>
<!-- Generator: Adobe Illustrator 16.0.0, SVG Export Plug-In . SVG Version: 6.00 Build 0)  -->
<!DOCTYPE svg PUBLIC "-//W3C//DTD SVG 1.1//EN" "http://www.w3.org/Graphics/SVG/1.1/DTD/svg11.dtd">
<svg version="1.1" id="Layer_1" xmlns="http://www.w3.org/2000/svg" xmlns:xlink="http://www.w3.org/1999/xlink" x="0px" y="0px"
	 width="45.125px" height="45.125px" viewBox="0 0 45.125 45.125" enable-background="new 0 0 45.125 45.125" xml:space="preserve">
<g>
	
		<linearGradient id="SVGID_1_" gradientUnits="userSpaceOnUse" x1="203.6191" y1="2.2827" x2="166.8358" y2="-34.5006" gradientTransform="matrix(1 0 0 -1 -161.7598 7.2656)">
		<stop  offset="0" style="stop-color:#FFFFFF"/>
		<stop  offset="1" style="stop-color:#212121;stop-opacity:0.5"/>
	</linearGradient>
	<path opacity="0.9" fill="url(#SVGID_1_)" enable-background="new    " d="M9.885,2.875c-3.745,0-6.792,3.219-6.792,7.175v26.65
		c0,3.955,3.047,7.176,6.792,7.176h27.166c3.745,0,6.792-3.221,6.792-7.176v-26.65c0-3.956-3.047-7.175-6.792-7.175H9.885z"/>
	<path fill="#FFFFFF" stroke="#000000" stroke-width="0.25" stroke-miterlimit="10" d="M8.282,1.25c-3.86,0-7,3.307-7,7.372v27.381
		c0,4.064,3.14,7.371,7,7.371h27.999c3.859,0,7-3.307,7-7.371V8.623c0-4.064-3.141-7.372-7-7.372H8.282z"/>
	<circle fill="#CC0000" cx="33.918" cy="10.677" r="4.364"/>
	<circle fill="#CC0000" cx="10.645" cy="33.949" r="4.363"/>
	<circle fill="#CC0000" cx="33.918" cy="33.949" r="4.363"/>
	<circle fill="#CC0000" cx="10.645" cy="10.677" r="4.364"/>
</g>
</svg>
