<?xml version="1.0" encoding="utf-8"?>
<!-- Generator: Adobe Illustrator 16.0.0, SVG Export Plug-In . SVG Version: 6.00 Build 0)  -->
<!DOCTYPE svg PUBLIC "-//W3C//DTD SVG 1.1//EN" "http://www.w3.org/Graphics/SVG/1.1/DTD/svg11.dtd">
<svg version="1.1" id="Dice2" xmlns="http://www.w3.org/2000/svg" xmlns:xlink="http://www.w3.org/1999/xlink" x="0px" y="0px"
	 width="180.614px" height="180.614px" viewBox="0 0 180.614 180.614" enable-background="new 0 0 180.614 180.614"
	 xml:space="preserve">
<g>
	<g>
		<g>
			
				<linearGradient id="SVGID_1_" gradientUnits="userSpaceOnUse" x1="-798.8467" y1="-14.5273" x2="-930.7211" y2="-115.7935" gradientTransform="matrix(0.3895 0.6143 0.6143 -0.3895 485.0278 602.3682)">
				<stop  offset="0" style="stop-color:#F05123"/>
				<stop  offset="1" style="stop-color:#A61E22"/>
			</linearGradient>
			<path fill="url(#SVGID_1_)" d="M76.207,80.75c0,0,15.613,16.066,16.162,28.526c0,0,2.109-21.123,17.306-30.759
				C109.674,78.517,89.735,89.244,76.207,80.75z"/>
			
				<linearGradient id="SVGID_2_" gradientUnits="userSpaceOnUse" x1="-873.4053" y1="61.3247" x2="-885.9" y2="26.7781" gradientTransform="matrix(0.3895 0.6143 0.6143 -0.3895 485.0356 602.3813)">
				<stop  offset="0" style="stop-color:#F05123"/>
				<stop  offset="1" style="stop-color:#A61E22"/>
			</linearGradient>
			<path fill="url(#SVGID_2_)" d="M151.826,36.634c0,0,7.896,10.171-5.88,18.905c0,0,14.262-8.371,18.918,2.427
				C164.864,57.966,163.163,47.806,151.826,36.634z"/>
			
				<linearGradient id="SVGID_3_" gradientUnits="userSpaceOnUse" x1="-969.9009" y1="-122.5059" x2="-1030.1986" y2="-192.3648" gradientTransform="matrix(0.3895 0.6143 0.6143 -0.3895 485.0454 602.3975)">
				<stop  offset="0" style="stop-color:#F05123"/>
				<stop  offset="1" style="stop-color:#A61E22"/>
			</linearGradient>
			<path fill="url(#SVGID_3_)" d="M15.75,64.846c0,0,7.375-11.326,15.599-7.36c0,0-9.429-8.872-2.292-16.579
				C29.058,40.907,16.822,50.563,15.75,64.846z"/>
			
				<linearGradient id="SVGID_4_" gradientUnits="userSpaceOnUse" x1="-752.4141" y1="-137.1118" x2="-839.1824" y2="-139.3154" gradientTransform="matrix(0.3895 0.6143 0.6143 -0.3895 485.022 602.3906)">
				<stop  offset="0" style="stop-color:#F05123"/>
				<stop  offset="1" style="stop-color:#A61E22"/>
			</linearGradient>
			<path fill="url(#SVGID_4_)" d="M79.368,170.799c0,0,12.885,2.744,12.987-7.986c0,0,3.014,11.141,12.389,6.85
				C104.744,169.663,94.294,177.471,79.368,170.799z"/>
		</g>
		<g>
			
				<linearGradient id="SVGID_5_" gradientUnits="userSpaceOnUse" x1="-434.73" y1="104.3086" x2="76.8551" y2="-477.8402" gradientTransform="matrix(0.3907 0.6161 0.6161 -0.3907 258.3311 140.407)">
				<stop  offset="0" style="stop-color:#F05123"/>
				<stop  offset="1" style="stop-color:#A61E22"/>
			</linearGradient>
			<path fill="url(#SVGID_5_)" d="M147.761,54.223l-39.971,25.345c-5.354,2.399-20.548,8.177-31.51,1.298
				c0,0,0.08,0.093,0.225,0.224L30.516,57.137c0.242,0.09,0.488,0.076,0.741,0.202c0,0-8.479-8.128-2.979-15.572
				c0.607-0.486,1.195-0.963,1.656-1.294l46.81-29.682c4.044-2.034,13.943-6.047,21.904-1.795c0.622,0.342,1.142,0.585,1.537,0.721
				l51.624,26.889C151.809,36.606,158.915,45.805,147.761,54.223z"/>
			
				<linearGradient id="SVGID_6_" gradientUnits="userSpaceOnUse" x1="-230.917" y1="-188.1797" x2="-1724.3353" y2="-943.7083" gradientTransform="matrix(0.2905 0.4582 0.4582 -0.2905 278.3281 207.0122)">
				<stop  offset="0" style="stop-color:#F05123"/>
				<stop  offset="1" style="stop-color:#A61E22"/>
			</linearGradient>
			<path fill="url(#SVGID_6_)" d="M30.516,57.137l45.989,23.952c1.833,1.939,15.004,16.249,15.859,27.762l0.005,54.521
				c-0.624,9.901-12.909,7.306-12.909,7.306c1.837,0.838,3.601,1.431,5.279,1.857c-1.455-0.301-2.767-0.634-3.791-0.943
				c0,0-48.818-25.424-50.22-26.104c-12.45-6.06-14.553-20.555-14.955-24.195l-0.01-56.763
				C16.349,63.648,22.956,54.299,30.516,57.137z"/>
			
				<linearGradient id="SVGID_7_" gradientUnits="userSpaceOnUse" x1="200.2676" y1="-34.6128" x2="38.2004" y2="-153.6826" gradientTransform="matrix(0.4856 0.7659 0.7659 -0.4856 254.7988 18.1245)">
				<stop  offset="0" style="stop-color:#F05123"/>
				<stop  offset="1" style="stop-color:#A61E22"/>
			</linearGradient>
			<path fill="url(#SVGID_7_)" d="M103.744,170.338c-0.84,0.43-1.685,0.801-2.541,1.122c2.302-0.953,3.643-1.924,3.643-1.924
				c-9.389,4.298-12.401-6.84-12.401-6.84c-0.009,0.244-0.05,0.456-0.074,0.675l-0.005-54.521c0.011,0.178,0.066,0.346,0.061,0.515
				c0,0,2.117-21.11,17.314-30.747c0,0-0.722,0.376-1.949,0.949l39.971-25.345c-0.582,0.431-1.165,0.865-1.833,1.289
				c0,0,14.261-8.372,18.917,2.425l0.006,58.334c0.01,0.015,0.002,0.021,0.004,0.038c0.299,15.946-15.031,24.708-15.031,24.708
				l0.075,0.055L103.744,170.338z"/>
		</g>
	</g>
	<g>
		
			<linearGradient id="SVGID_8_" gradientUnits="userSpaceOnUse" x1="-703.5591" y1="-1038.521" x2="-724.1393" y2="-1055.428" gradientTransform="matrix(0.5407 0 0 0.5407 434.8521 610.0483)">
			<stop  offset="0" style="stop-color:#F5F5F5"/>
			<stop  offset="1" style="stop-color:#CCCCCC"/>
		</linearGradient>
		<path fill="url(#SVGID_8_)" d="M65.603,47.736c0,4.729-5.425,8.561-12.108,8.561c-6.703,0-12.131-3.833-12.131-8.561
			c0-4.721,5.428-8.562,12.131-8.562C60.178,39.174,65.603,43.015,65.603,47.736z"/>
		
			<linearGradient id="SVGID_9_" gradientUnits="userSpaceOnUse" x1="-578.2412" y1="-1041.4087" x2="-598.8212" y2="-1058.3153" gradientTransform="matrix(0.5407 0 0 0.5407 443.5171 609.8486)">
			<stop  offset="0" style="stop-color:#F5F5F5"/>
			<stop  offset="1" style="stop-color:#CCCCCC"/>
		</linearGradient>
		<path fill="url(#SVGID_9_)" d="M142.038,45.986c0,4.721-5.444,8.546-12.126,8.546c-6.687,0-12.111-3.826-12.111-8.546
			c0-4.728,5.425-8.56,12.111-8.56C136.594,37.426,142.038,41.258,142.038,45.986z"/>
		
			<linearGradient id="SVGID_10_" gradientUnits="userSpaceOnUse" x1="-557.6973" y1="-617.8159" x2="-545.9532" y2="-651.67" gradientTransform="matrix(0.7274 0 0 0.7274 509.7905 611.918)">
			<stop  offset="0" style="stop-color:#F5F5F5"/>
			<stop  offset="1" style="stop-color:#CCCCCC"/>
		</linearGradient>
		<path fill="url(#SVGID_10_)" d="M119.659,140.033c0,5.764-4.187,12.52-9.334,15.067l0,0c-5.169,2.55-9.338-0.069-9.338-5.843l0,0
			c0-5.766,4.169-12.513,9.338-15.063l0,0C115.473,131.637,119.659,134.255,119.659,140.033z"/>
		
			<linearGradient id="SVGID_11_" gradientUnits="userSpaceOnUse" x1="-512.9531" y1="-662.5303" x2="-524.0082" y2="-690.8591" gradientTransform="matrix(0.7274 0 0 0.7274 509.9224 611.9829)">
			<stop  offset="0" style="stop-color:#F5F5F5"/>
			<stop  offset="1" style="stop-color:#CCCCCC"/>
		</linearGradient>
		<path fill="url(#SVGID_11_)" d="M138.92,106.943c0,5.77-4.17,12.523-9.319,15.073l0,0c-5.186,2.552-9.355-0.069-9.355-5.831l0,0
			c0-5.781,4.17-12.516,9.355-15.074l0,0C134.75,98.562,138.92,101.171,138.92,106.943z"/>
		
			<linearGradient id="SVGID_12_" gradientUnits="userSpaceOnUse" x1="-485.9922" y1="-700.9912" x2="-498.4312" y2="-738.9974" gradientTransform="matrix(0.7274 0 0 0.7274 509.7905 611.918)">
			<stop  offset="0" style="stop-color:#F5F5F5"/>
			<stop  offset="1" style="stop-color:#CCCCCC"/>
		</linearGradient>
		<path fill="url(#SVGID_12_)" d="M157.853,73.696c0,5.788-4.188,12.524-9.321,15.074l0,0c-5.184,2.558-9.334-0.06-9.334-5.832l0,0
			c0-5.779,4.15-12.532,9.334-15.074l0,0C153.664,65.315,157.853,67.925,157.853,73.696z"/>
		
			<linearGradient id="SVGID_13_" gradientUnits="userSpaceOnUse" x1="-532.9424" y1="-669.6929" x2="-545.382" y2="-707.7009" gradientTransform="matrix(0.7274 0 0 0.7274 505.4238 614.8286)">
			<stop  offset="0" style="stop-color:#F5F5F5"/>
			<stop  offset="1" style="stop-color:#CCCCCC"/>
		</linearGradient>
		<path fill="url(#SVGID_13_)" d="M119.333,99.373c0,5.78-4.169,12.521-9.319,15.082l0,0c-5.15,2.541-9.338-0.07-9.338-5.832l0,0
			c0-5.797,4.188-12.532,9.338-15.091l0,0C115.164,90.982,119.333,93.602,119.333,99.373z"/>
		
			<linearGradient id="SVGID_14_" gradientUnits="userSpaceOnUse" x1="-487.4214" y1="-649.7964" x2="-499.8574" y2="-687.7935" gradientTransform="matrix(0.7274 0 0 0.7274 509.6577 616.6802)">
			<stop  offset="0" style="stop-color:#F5F5F5"/>
			<stop  offset="1" style="stop-color:#CCCCCC"/>
		</linearGradient>
		<path fill="url(#SVGID_14_)" d="M156.683,115.72c0,5.762-4.17,12.515-9.319,15.063l0,0c-5.171,2.551-9.338-0.075-9.338-5.838l0,0
			c0-5.779,4.167-12.514,9.338-15.074l0,0C152.513,107.321,156.683,109.942,156.683,115.72z"/>
		
			<linearGradient id="SVGID_15_" gradientUnits="userSpaceOnUse" x1="-646.5313" y1="-712.2305" x2="-657.5885" y2="-729.5078" gradientTransform="matrix(0.7274 0 0 0.7274 509.3647 611.418)">
			<stop  offset="0" style="stop-color:#F5F5F5"/>
			<stop  offset="1" style="stop-color:#CCCCCC"/>
		</linearGradient>
		<path fill="url(#SVGID_15_)" d="M41.021,87.899c0,5.745-4.103,7.803-9.13,4.617l0,0c-5.03-3.196-9.13-10.439-9.13-16.184l0,0
			c0-5.745,4.1-7.813,9.13-4.625l0,0C36.919,74.902,41.021,82.145,41.021,87.899z"/>
		
			<linearGradient id="SVGID_16_" gradientUnits="userSpaceOnUse" x1="-646.5337" y1="-659.5986" x2="-657.5898" y2="-676.874" gradientTransform="matrix(0.7274 0 0 0.7274 509.3647 616.3135)">
			<stop  offset="0" style="stop-color:#F5F5F5"/>
			<stop  offset="1" style="stop-color:#CCCCCC"/>
		</linearGradient>
		<path fill="url(#SVGID_16_)" d="M41.021,131.07c0,5.744-4.103,7.822-9.13,4.633l0,0c-5.03-3.203-9.13-10.438-9.13-16.192l0,0
			c0-5.735,4.1-7.821,9.13-4.608l0,0C36.919,118.08,41.021,125.324,41.021,131.07z"/>
		
			<linearGradient id="SVGID_17_" gradientUnits="userSpaceOnUse" x1="-599.8281" y1="-687.1367" x2="-610.8846" y2="-704.4128" gradientTransform="matrix(0.7274 0 0 0.7274 513.7095 613.752)">
			<stop  offset="0" style="stop-color:#F5F5F5"/>
			<stop  offset="1" style="stop-color:#CCCCCC"/>
		</linearGradient>
		<path fill="url(#SVGID_17_)" d="M79.332,108.485c0,5.755-4.082,7.812-9.111,4.615l0,0c-5.05-3.177-9.132-10.438-9.132-16.175l0,0
			c0-5.744,4.082-7.804,9.132-4.608l0,0C75.25,95.488,79.332,102.748,79.332,108.485z"/>
		
			<linearGradient id="SVGID_18_" gradientUnits="userSpaceOnUse" x1="-599.8252" y1="-635.2139" x2="-610.881" y2="-652.4888" gradientTransform="matrix(0.7274 0 0 0.7274 513.7095 618.582)">
			<stop  offset="0" style="stop-color:#F5F5F5"/>
			<stop  offset="1" style="stop-color:#CCCCCC"/>
		</linearGradient>
		<path fill="url(#SVGID_18_)" d="M79.332,151.085c0,5.737-4.082,7.813-9.111,4.61l0,0c-5.05-3.182-9.132-10.439-9.132-16.178l0,0
			c0-5.752,4.082-7.803,9.132-4.615l0,0C75.25,138.1,79.332,145.334,79.332,151.085z"/>
	</g>
</g>
</svg>
