<?xml version="1.0" encoding="utf-8"?>
<!-- Generator: Adobe Illustrator 16.0.0, SVG Export Plug-In . SVG Version: 6.00 Build 0)  -->
<!DOCTYPE svg PUBLIC "-//W3C//DTD SVG 1.1//EN" "http://www.w3.org/Graphics/SVG/1.1/DTD/svg11.dtd">
<svg version="1.1" id="Dice1" xmlns="http://www.w3.org/2000/svg" xmlns:xlink="http://www.w3.org/1999/xlink" x="0px" y="0px"
	 width="180.614px" height="180.614px" viewBox="0 0 180.614 180.614" enable-background="new 0 0 180.614 180.614"
	 xml:space="preserve">
<g>
	<g>
		<g>
			
				<linearGradient id="SVGID_1_" gradientUnits="userSpaceOnUse" x1="-798.8467" y1="-14.5273" x2="-930.7211" y2="-115.7935" gradientTransform="matrix(0.3895 0.6143 0.6143 -0.3895 485.0278 602.3682)">
				<stop  offset="0" style="stop-color:#F05123"/>
				<stop  offset="1" style="stop-color:#A61E22"/>
			</linearGradient>
			<path fill="url(#SVGID_1_)" d="M76.207,80.75c0,0,15.613,16.066,16.162,28.526c0,0,2.109-21.123,17.306-30.759
				C109.674,78.517,89.735,89.244,76.207,80.75z"/>
			
				<linearGradient id="SVGID_2_" gradientUnits="userSpaceOnUse" x1="-873.4053" y1="61.3247" x2="-885.9" y2="26.7781" gradientTransform="matrix(0.3895 0.6143 0.6143 -0.3895 485.0356 602.3813)">
				<stop  offset="0" style="stop-color:#F05123"/>
				<stop  offset="1" style="stop-color:#A61E22"/>
			</linearGradient>
			<path fill="url(#SVGID_2_)" d="M151.826,36.634c0,0,7.896,10.171-5.88,18.905c0,0,14.262-8.371,18.918,2.427
				C164.864,57.966,163.163,47.806,151.826,36.634z"/>
			
				<linearGradient id="SVGID_3_" gradientUnits="userSpaceOnUse" x1="-969.9009" y1="-122.5059" x2="-1030.1986" y2="-192.3648" gradientTransform="matrix(0.3895 0.6143 0.6143 -0.3895 485.0454 602.3975)">
				<stop  offset="0" style="stop-color:#F05123"/>
				<stop  offset="1" style="stop-color:#A61E22"/>
			</linearGradient>
			<path fill="url(#SVGID_3_)" d="M15.75,64.846c0,0,7.375-11.326,15.599-7.36c0,0-9.429-8.872-2.292-16.579
				C29.058,40.907,16.822,50.563,15.75,64.846z"/>
			
				<linearGradient id="SVGID_4_" gradientUnits="userSpaceOnUse" x1="-752.4141" y1="-137.1118" x2="-839.1824" y2="-139.3154" gradientTransform="matrix(0.3895 0.6143 0.6143 -0.3895 485.022 602.3906)">
				<stop  offset="0" style="stop-color:#F05123"/>
				<stop  offset="1" style="stop-color:#A61E22"/>
			</linearGradient>
			<path fill="url(#SVGID_4_)" d="M79.368,170.799c0,0,12.885,2.744,12.987-7.986c0,0,3.014,11.141,12.389,6.85
				C104.744,169.663,94.294,177.471,79.368,170.799z"/>
		</g>
		<g>
			
				<linearGradient id="SVGID_5_" gradientUnits="userSpaceOnUse" x1="-434.73" y1="104.3086" x2="76.8551" y2="-477.8402" gradientTransform="matrix(0.3907 0.6161 0.6161 -0.3907 258.3311 140.407)">
				<stop  offset="0" style="stop-color:#F05123"/>
				<stop  offset="1" style="stop-color:#A61E22"/>
			</linearGradient>
			<path fill="url(#SVGID_5_)" d="M147.761,54.223l-39.971,25.345c-5.354,2.399-20.548,8.177-31.51,1.298
				c0,0,0.08,0.093,0.225,0.224L30.516,57.137c0.242,0.09,0.488,0.076,0.741,0.202c0,0-8.479-8.128-2.979-15.572
				c0.607-0.486,1.195-0.963,1.656-1.294l46.81-29.682c4.044-2.034,13.943-6.047,21.904-1.795c0.622,0.342,1.142,0.585,1.537,0.721
				l51.624,26.889C151.809,36.606,158.915,45.805,147.761,54.223z"/>
			
				<linearGradient id="SVGID_6_" gradientUnits="userSpaceOnUse" x1="-230.917" y1="-188.1797" x2="-1724.3353" y2="-943.7083" gradientTransform="matrix(0.2905 0.4582 0.4582 -0.2905 278.3281 207.0122)">
				<stop  offset="0" style="stop-color:#F05123"/>
				<stop  offset="1" style="stop-color:#A61E22"/>
			</linearGradient>
			<path fill="url(#SVGID_6_)" d="M30.516,57.137l45.989,23.952c1.833,1.939,15.004,16.249,15.859,27.762l0.005,54.521
				c-0.624,9.901-12.909,7.306-12.909,7.306c1.837,0.838,3.601,1.431,5.279,1.857c-1.455-0.301-2.767-0.634-3.791-0.943
				c0,0-48.818-25.424-50.22-26.104c-12.45-6.06-14.553-20.555-14.955-24.195l-0.01-56.763
				C16.349,63.648,22.956,54.299,30.516,57.137z"/>
			
				<linearGradient id="SVGID_7_" gradientUnits="userSpaceOnUse" x1="200.2676" y1="-34.6128" x2="38.2004" y2="-153.6826" gradientTransform="matrix(0.4856 0.7659 0.7659 -0.4856 254.7988 18.1245)">
				<stop  offset="0" style="stop-color:#F05123"/>
				<stop  offset="1" style="stop-color:#A61E22"/>
			</linearGradient>
			<path fill="url(#SVGID_7_)" d="M103.744,170.338c-0.84,0.43-1.685,0.801-2.541,1.122c2.302-0.953,3.643-1.924,3.643-1.924
				c-9.389,4.298-12.401-6.84-12.401-6.84c-0.009,0.244-0.05,0.456-0.074,0.675l-0.005-54.521c0.011,0.178,0.066,0.346,0.061,0.515
				c0,0,2.117-21.11,17.314-30.747c0,0-0.722,0.376-1.949,0.949l39.971-25.345c-0.582,0.431-1.165,0.865-1.833,1.289
				c0,0,14.261-8.372,18.917,2.425l0.006,58.334c0.01,0.015,0.002,0.021,0.004,0.038c0.299,15.946-15.031,24.708-15.031,24.708
				l0.075,0.055L103.744,170.338z"/>
		</g>
	</g>
	<g>
		
			<linearGradient id="SVGID_8_" gradientUnits="userSpaceOnUse" x1="-595.9194" y1="-946.0132" x2="-616.5031" y2="-962.9229" gradientTransform="matrix(0.5927 0 0 0.5927 445.7632 606.7966)">
			<stop  offset="0" style="stop-color:#F5F5F5"/>
			<stop  offset="1" style="stop-color:#CCCCCC"/>
		</linearGradient>
		<path fill="url(#SVGID_8_)" d="M103.907,44.493c0,5.186-5.961,9.38-13.283,9.38c-7.354,0-13.298-4.194-13.298-9.38
			s5.944-9.371,13.298-9.371C97.946,35.122,103.907,39.308,103.907,44.493z"/>
		
			<linearGradient id="SVGID_9_" gradientUnits="userSpaceOnUse" x1="-539.5991" y1="-611.46" x2="-527.8522" y2="-645.3221" gradientTransform="matrix(0.7274 0 0 0.7274 497.0054 608.7192)">
			<stop  offset="0" style="stop-color:#F5F5F5"/>
			<stop  offset="1" style="stop-color:#CCCCCC"/>
		</linearGradient>
		<path fill="url(#SVGID_9_)" d="M120.046,141.452c0,5.781-4.184,12.517-9.336,15.075l0,0c-5.169,2.55-9.355-0.062-9.355-5.833l0,0
			c0-5.787,4.187-12.524,9.355-15.071l0,0C115.862,133.063,120.046,135.674,120.046,141.452z"/>
		
			<linearGradient id="SVGID_10_" gradientUnits="userSpaceOnUse" x1="-496.2837" y1="-656.8813" x2="-507.3395" y2="-685.2123" gradientTransform="matrix(0.7274 0 0 0.7274 497.0054 608.7192)">
			<stop  offset="0" style="stop-color:#F5F5F5"/>
			<stop  offset="1" style="stop-color:#CCCCCC"/>
		</linearGradient>
		<path fill="url(#SVGID_10_)" d="M138.119,107.793c0,5.77-4.171,12.515-9.319,15.063l0,0c-5.168,2.559-9.338-0.06-9.338-5.839l0,0
			c0-5.771,4.17-12.516,9.338-15.066l0,0C133.948,99.404,138.119,102.022,138.119,107.793z"/>
		
			<linearGradient id="SVGID_11_" gradientUnits="userSpaceOnUse" x1="-467.9229" y1="-694.6494" x2="-480.3596" y2="-732.6486" gradientTransform="matrix(0.7274 0 0 0.7274 497.0054 608.7192)">
			<stop  offset="0" style="stop-color:#F5F5F5"/>
			<stop  offset="1" style="stop-color:#CCCCCC"/>
		</linearGradient>
		<path fill="url(#SVGID_11_)" d="M158.221,75.131c0,5.771-4.165,12.516-9.335,15.064l0,0c-5.151,2.55-9.338-0.069-9.338-5.83l0,0
			c0-5.78,4.187-12.523,9.338-15.066l0,0C154.056,66.74,158.221,69.344,158.221,75.131z"/>
		
			<linearGradient id="SVGID_12_" gradientUnits="userSpaceOnUse" x1="-622.0396" y1="-698.0464" x2="-633.0961" y2="-715.3225" gradientTransform="matrix(0.7274 0 0 0.7274 497.1768 608.9482)">
			<stop  offset="0" style="stop-color:#F5F5F5"/>
			<stop  offset="1" style="stop-color:#CCCCCC"/>
		</linearGradient>
		<path fill="url(#SVGID_12_)" d="M46.646,95.742c0,5.737-4.103,7.811-9.13,4.626l0,0c-5.031-3.195-9.117-10.439-9.117-16.193l0,0
			c0-5.737,4.086-7.813,9.117-4.626l0,0C42.544,82.745,46.646,89.988,46.646,95.742z"/>
		
			<linearGradient id="SVGID_13_" gradientUnits="userSpaceOnUse" x1="-585.2979" y1="-633.1436" x2="-596.3502" y2="-650.4131" gradientTransform="matrix(0.7274 0 0 0.7274 500.5947 614.9863)">
			<stop  offset="0" style="stop-color:#F5F5F5"/>
			<stop  offset="1" style="stop-color:#CCCCCC"/>
		</linearGradient>
		<path fill="url(#SVGID_13_)" d="M76.791,149.008c0,5.746-4.083,7.82-9.13,4.626l0,0c-5.011-3.206-9.113-10.458-9.113-16.194l0,0
			c0-5.745,4.103-7.822,9.113-4.61l0,0C72.708,136.018,76.791,143.264,76.791,149.008z"/>
	</g>
</g>
</svg>
