<?xml version="1.0" encoding="utf-8"?>
<!-- Generator: Adobe Illustrator 16.0.0, SVG Export Plug-In . SVG Version: 6.00 Build 0)  -->
<!DOCTYPE svg PUBLIC "-//W3C//DTD SVG 1.1//EN" "http://www.w3.org/Graphics/SVG/1.1/DTD/svg11.dtd">
<svg version="1.1" id="Dice3" xmlns="http://www.w3.org/2000/svg" xmlns:xlink="http://www.w3.org/1999/xlink" x="0px" y="0px"
	 width="180.614px" height="180.614px" viewBox="0 0 180.614 180.614" enable-background="new 0 0 180.614 180.614"
	 xml:space="preserve">
<g>
	<g>
		<g>
			
				<linearGradient id="SVGID_1_" gradientUnits="userSpaceOnUse" x1="-798.8467" y1="-14.5273" x2="-930.7211" y2="-115.7935" gradientTransform="matrix(0.3895 0.6143 0.6143 -0.3895 485.0278 602.3682)">
				<stop  offset="0" style="stop-color:#F05123"/>
				<stop  offset="1" style="stop-color:#A61E22"/>
			</linearGradient>
			<path fill="url(#SVGID_1_)" d="M76.207,80.75c0,0,15.613,16.066,16.162,28.526c0,0,2.109-21.123,17.306-30.759
				C109.674,78.517,89.735,89.244,76.207,80.75z"/>
			
				<linearGradient id="SVGID_2_" gradientUnits="userSpaceOnUse" x1="-873.4053" y1="61.3247" x2="-885.9" y2="26.7781" gradientTransform="matrix(0.3895 0.6143 0.6143 -0.3895 485.0356 602.3813)">
				<stop  offset="0" style="stop-color:#F05123"/>
				<stop  offset="1" style="stop-color:#A61E22"/>
			</linearGradient>
			<path fill="url(#SVGID_2_)" d="M151.826,36.634c0,0,7.896,10.171-5.88,18.905c0,0,14.262-8.371,18.918,2.427
				C164.864,57.966,163.163,47.806,151.826,36.634z"/>
			
				<linearGradient id="SVGID_3_" gradientUnits="userSpaceOnUse" x1="-969.9009" y1="-122.5059" x2="-1030.1986" y2="-192.3648" gradientTransform="matrix(0.3895 0.6143 0.6143 -0.3895 485.0454 602.3975)">
				<stop  offset="0" style="stop-color:#F05123"/>
				<stop  offset="1" style="stop-color:#A61E22"/>
			</linearGradient>
			<path fill="url(#SVGID_3_)" d="M15.75,64.846c0,0,7.375-11.326,15.599-7.36c0,0-9.429-8.872-2.292-16.579
				C29.058,40.907,16.822,50.563,15.75,64.846z"/>
			
				<linearGradient id="SVGID_4_" gradientUnits="userSpaceOnUse" x1="-752.4141" y1="-137.1118" x2="-839.1824" y2="-139.3154" gradientTransform="matrix(0.3895 0.6143 0.6143 -0.3895 485.022 602.3906)">
				<stop  offset="0" style="stop-color:#F05123"/>
				<stop  offset="1" style="stop-color:#A61E22"/>
			</linearGradient>
			<path fill="url(#SVGID_4_)" d="M79.368,170.799c0,0,12.885,2.744,12.987-7.986c0,0,3.014,11.141,12.389,6.85
				C104.744,169.663,94.294,177.471,79.368,170.799z"/>
		</g>
		<g>
			
				<linearGradient id="SVGID_5_" gradientUnits="userSpaceOnUse" x1="-434.73" y1="104.3086" x2="76.8551" y2="-477.8402" gradientTransform="matrix(0.3907 0.6161 0.6161 -0.3907 258.3311 140.407)">
				<stop  offset="0" style="stop-color:#F05123"/>
				<stop  offset="1" style="stop-color:#A61E22"/>
			</linearGradient>
			<path fill="url(#SVGID_5_)" d="M147.761,54.223l-39.971,25.345c-5.354,2.399-20.548,8.177-31.51,1.298
				c0,0,0.08,0.093,0.225,0.224L30.516,57.137c0.242,0.09,0.488,0.076,0.741,0.202c0,0-8.479-8.128-2.979-15.572
				c0.607-0.486,1.195-0.963,1.656-1.294l46.81-29.682c4.044-2.034,13.943-6.047,21.904-1.795c0.622,0.342,1.142,0.585,1.537,0.721
				l51.624,26.889C151.809,36.606,158.915,45.805,147.761,54.223z"/>
			
				<linearGradient id="SVGID_6_" gradientUnits="userSpaceOnUse" x1="-230.917" y1="-188.1797" x2="-1724.3353" y2="-943.7083" gradientTransform="matrix(0.2905 0.4582 0.4582 -0.2905 278.3281 207.0122)">
				<stop  offset="0" style="stop-color:#F05123"/>
				<stop  offset="1" style="stop-color:#A61E22"/>
			</linearGradient>
			<path fill="url(#SVGID_6_)" d="M30.516,57.137l45.989,23.952c1.833,1.939,15.004,16.249,15.859,27.762l0.005,54.521
				c-0.624,9.901-12.909,7.306-12.909,7.306c1.837,0.838,3.601,1.431,5.279,1.857c-1.455-0.301-2.767-0.634-3.791-0.943
				c0,0-48.818-25.424-50.22-26.104c-12.45-6.06-14.553-20.555-14.955-24.195l-0.01-56.763
				C16.349,63.648,22.956,54.299,30.516,57.137z"/>
			
				<linearGradient id="SVGID_7_" gradientUnits="userSpaceOnUse" x1="200.2676" y1="-34.6128" x2="38.2004" y2="-153.6826" gradientTransform="matrix(0.4856 0.7659 0.7659 -0.4856 254.7988 18.1245)">
				<stop  offset="0" style="stop-color:#F05123"/>
				<stop  offset="1" style="stop-color:#A61E22"/>
			</linearGradient>
			<path fill="url(#SVGID_7_)" d="M103.744,170.338c-0.84,0.43-1.685,0.801-2.541,1.122c2.302-0.953,3.643-1.924,3.643-1.924
				c-9.389,4.298-12.401-6.84-12.401-6.84c-0.009,0.244-0.05,0.456-0.074,0.675l-0.005-54.521c0.011,0.178,0.066,0.346,0.061,0.515
				c0,0,2.117-21.11,17.314-30.747c0,0-0.722,0.376-1.949,0.949l39.971-25.345c-0.582,0.431-1.165,0.865-1.833,1.289
				c0,0,14.261-8.372,18.917,2.425l0.006,58.334c0.01,0.015,0.002,0.021,0.004,0.038c0.299,15.946-15.031,24.708-15.031,24.708
				l0.075,0.055L103.744,170.338z"/>
		</g>
	</g>
	<g>
		
			<linearGradient id="SVGID_8_" gradientUnits="userSpaceOnUse" x1="-141.1758" y1="-629.3188" x2="-161.7595" y2="-646.2286" gradientTransform="matrix(-0.2994 -0.5115 0.5115 -0.2994 331.2517 -150.0039)">
			<stop  offset="0" style="stop-color:#F5F5F5"/>
			<stop  offset="1" style="stop-color:#CCCCCC"/>
		</linearGradient>
		<path fill="url(#SVGID_8_)" d="M44.474,101.62c4.475-2.619,11.106,0.407,14.805,6.729c3.714,6.346,3.096,13.595-1.379,16.213
			c-4.476,2.619-11.09-0.396-14.804-6.742C39.396,111.498,39.999,104.239,44.474,101.62z"/>
		
			<linearGradient id="SVGID_9_" gradientUnits="userSpaceOnUse" x1="-169.0645" y1="-353.4121" x2="-157.3177" y2="-387.2737" gradientTransform="matrix(-0.3674 -0.6278 0.6278 -0.3674 307.0303 -195.2002)">
			<stop  offset="0" style="stop-color:#F5F5F5"/>
			<stop  offset="1" style="stop-color:#CCCCCC"/>
		</linearGradient>
		<path fill="url(#SVGID_9_)" d="M120.005,38.721c4.99-2.92,12.916-2.71,17.727,0.444l0,0c4.813,3.173,4.672,8.105-0.309,11.02l0,0
			c-4.994,2.923-12.923,2.712-17.732-0.463l0,0C114.879,46.569,115.019,41.639,120.005,38.721z"/>
		
			<linearGradient id="SVGID_10_" gradientUnits="userSpaceOnUse" x1="-125.7476" y1="-398.8281" x2="-136.8038" y2="-427.1601" gradientTransform="matrix(-0.3674 -0.6278 0.6278 -0.3674 307.0303 -195.2002)">
			<stop  offset="0" style="stop-color:#F5F5F5"/>
			<stop  offset="1" style="stop-color:#CCCCCC"/>
		</linearGradient>
		<path fill="url(#SVGID_10_)" d="M81.828,40.122c4.978-2.913,12.907-2.719,17.707,0.436l0,0c4.819,3.169,4.666,8.089-0.323,11.009
			l0,0c-4.981,2.915-12.906,2.722-17.718-0.451l0,0C76.693,47.96,76.847,43.037,81.828,40.122z"/>
		
			<linearGradient id="SVGID_11_" gradientUnits="userSpaceOnUse" x1="-97.3867" y1="-436.5996" x2="-109.8234" y2="-474.5988" gradientTransform="matrix(-0.3674 -0.6278 0.6278 -0.3674 307.0303 -195.2002)">
			<stop  offset="0" style="stop-color:#F5F5F5"/>
			<stop  offset="1" style="stop-color:#CCCCCC"/>
		</linearGradient>
		<path fill="url(#SVGID_11_)" d="M43.485,39.27c4.98-2.914,12.906-2.726,17.717,0.448l0,0c4.802,3.159,4.655,8.095-0.317,11.005
			l0,0c-4.988,2.919-12.923,2.711-17.719-0.451l0,0C38.347,47.103,38.49,42.193,43.485,39.27z"/>
		
			<linearGradient id="SVGID_12_" gradientUnits="userSpaceOnUse" x1="-251.5049" y1="-440" x2="-262.5611" y2="-457.2756" gradientTransform="matrix(-0.3674 -0.6278 0.6278 -0.3674 307.1406 -195.4639)">
			<stop  offset="0" style="stop-color:#F5F5F5"/>
			<stop  offset="1" style="stop-color:#CCCCCC"/>
		</linearGradient>
		<path fill="url(#SVGID_12_)" d="M117.626,125.158c4.952-2.898,8.814-0.405,8.604,5.542l0,0
			c-0.217,5.957-4.404,13.142-9.371,16.048l0,0c-4.951,2.897-8.806,0.419-8.598-5.532l0,0
			C108.482,135.263,112.662,128.063,117.626,125.158z"/>
		
			<linearGradient id="SVGID_13_" gradientUnits="userSpaceOnUse" x1="-214.7642" y1="-375.0938" x2="-225.8168" y2="-392.3638" gradientTransform="matrix(-0.3674 -0.6278 0.6278 -0.3674 310.626 -201.4639)">
			<stop  offset="0" style="stop-color:#F5F5F5"/>
			<stop  offset="1" style="stop-color:#CCCCCC"/>
		</linearGradient>
		<path fill="url(#SVGID_13_)" d="M148.375,72.237c4.959-2.901,8.813-0.427,8.604,5.544l0,0c-0.235,5.943-4.422,13.146-9.373,16.044
			l0,0c-4.96,2.902-8.824,0.41-8.583-5.536l0,0C139.225,82.321,143.416,75.14,148.375,72.237z"/>
	</g>
</g>
</svg>
