<?xml version="1.0" encoding="utf-8"?>
<!-- Generator: Adobe Illustrator 16.0.0, SVG Export Plug-In . SVG Version: 6.00 Build 0)  -->
<!DOCTYPE svg PUBLIC "-//W3C//DTD SVG 1.1//EN" "http://www.w3.org/Graphics/SVG/1.1/DTD/svg11.dtd">
<svg version="1.1" id="Dice6" xmlns="http://www.w3.org/2000/svg" xmlns:xlink="http://www.w3.org/1999/xlink" x="0px" y="0px"
	 width="180.614px" height="180.614px" viewBox="0 0 180.614 180.614" enable-background="new 0 0 180.614 180.614"
	 xml:space="preserve">
<g>
	<g>
		<g>
			
				<linearGradient id="SVGID_1_" gradientUnits="userSpaceOnUse" x1="-798.8467" y1="-14.5273" x2="-930.7211" y2="-115.7935" gradientTransform="matrix(0.3895 0.6143 0.6143 -0.3895 485.0278 602.3682)">
				<stop  offset="0" style="stop-color:#F05123"/>
				<stop  offset="1" style="stop-color:#A61E22"/>
			</linearGradient>
			<path fill="url(#SVGID_1_)" d="M76.207,80.75c0,0,15.613,16.066,16.162,28.526c0,0,2.109-21.123,17.306-30.759
				C109.674,78.517,89.735,89.244,76.207,80.75z"/>
			
				<linearGradient id="SVGID_2_" gradientUnits="userSpaceOnUse" x1="-873.4053" y1="61.3247" x2="-885.9" y2="26.7781" gradientTransform="matrix(0.3895 0.6143 0.6143 -0.3895 485.0356 602.3813)">
				<stop  offset="0" style="stop-color:#F05123"/>
				<stop  offset="1" style="stop-color:#A61E22"/>
			</linearGradient>
			<path fill="url(#SVGID_2_)" d="M151.826,36.634c0,0,7.896,10.171-5.88,18.905c0,0,14.262-8.371,18.918,2.427
				C164.864,57.966,163.163,47.806,151.826,36.634z"/>
			
				<linearGradient id="SVGID_3_" gradientUnits="userSpaceOnUse" x1="-969.9009" y1="-122.5059" x2="-1030.1986" y2="-192.3648" gradientTransform="matrix(0.3895 0.6143 0.6143 -0.3895 485.0454 602.3975)">
				<stop  offset="0" style="stop-color:#F05123"/>
				<stop  offset="1" style="stop-color:#A61E22"/>
			</linearGradient>
			<path fill="url(#SVGID_3_)" d="M15.75,64.846c0,0,7.375-11.326,15.599-7.36c0,0-9.429-8.872-2.292-16.579
				C29.058,40.907,16.822,50.563,15.75,64.846z"/>
			
				<linearGradient id="SVGID_4_" gradientUnits="userSpaceOnUse" x1="-752.4141" y1="-137.1118" x2="-839.1824" y2="-139.3154" gradientTransform="matrix(0.3895 0.6143 0.6143 -0.3895 485.022 602.3906)">
				<stop  offset="0" style="stop-color:#F05123"/>
				<stop  offset="1" style="stop-color:#A61E22"/>
			</linearGradient>
			<path fill="url(#SVGID_4_)" d="M79.368,170.799c0,0,12.885,2.744,12.987-7.986c0,0,3.014,11.141,12.389,6.85
				C104.744,169.663,94.294,177.471,79.368,170.799z"/>
		</g>
		<g>
			
				<linearGradient id="SVGID_5_" gradientUnits="userSpaceOnUse" x1="-434.73" y1="104.3086" x2="76.8551" y2="-477.8402" gradientTransform="matrix(0.3907 0.6161 0.6161 -0.3907 258.3311 140.407)">
				<stop  offset="0" style="stop-color:#F05123"/>
				<stop  offset="1" style="stop-color:#A61E22"/>
			</linearGradient>
			<path fill="url(#SVGID_5_)" d="M147.761,54.223l-39.971,25.345c-5.354,2.399-20.548,8.177-31.51,1.298
				c0,0,0.08,0.093,0.225,0.224L30.516,57.137c0.242,0.09,0.488,0.076,0.741,0.202c0,0-8.479-8.128-2.979-15.572
				c0.607-0.486,1.195-0.963,1.656-1.294l46.81-29.682c4.044-2.034,13.943-6.047,21.904-1.795c0.622,0.342,1.142,0.585,1.537,0.721
				l51.624,26.889C151.809,36.606,158.915,45.805,147.761,54.223z"/>
			
				<linearGradient id="SVGID_6_" gradientUnits="userSpaceOnUse" x1="-230.917" y1="-188.1797" x2="-1724.3353" y2="-943.7083" gradientTransform="matrix(0.2905 0.4582 0.4582 -0.2905 278.3281 207.0122)">
				<stop  offset="0" style="stop-color:#F05123"/>
				<stop  offset="1" style="stop-color:#A61E22"/>
			</linearGradient>
			<path fill="url(#SVGID_6_)" d="M30.516,57.137l45.989,23.952c1.833,1.939,15.004,16.249,15.859,27.762l0.005,54.521
				c-0.624,9.901-12.909,7.306-12.909,7.306c1.837,0.838,3.601,1.431,5.279,1.857c-1.455-0.301-2.767-0.634-3.791-0.943
				c0,0-48.818-25.424-50.22-26.104c-12.45-6.06-14.553-20.555-14.955-24.195l-0.01-56.763
				C16.349,63.648,22.956,54.299,30.516,57.137z"/>
			
				<linearGradient id="SVGID_7_" gradientUnits="userSpaceOnUse" x1="200.2676" y1="-34.6128" x2="38.2004" y2="-153.6826" gradientTransform="matrix(0.4856 0.7659 0.7659 -0.4856 254.7988 18.1245)">
				<stop  offset="0" style="stop-color:#F05123"/>
				<stop  offset="1" style="stop-color:#A61E22"/>
			</linearGradient>
			<path fill="url(#SVGID_7_)" d="M103.744,170.338c-0.84,0.43-1.685,0.801-2.541,1.122c2.302-0.953,3.643-1.924,3.643-1.924
				c-9.389,4.298-12.401-6.84-12.401-6.84c-0.009,0.244-0.05,0.456-0.074,0.675l-0.005-54.521c0.011,0.178,0.066,0.346,0.061,0.515
				c0,0,2.117-21.11,17.314-30.747c0,0-0.722,0.376-1.949,0.949l39.971-25.345c-0.582,0.431-1.165,0.865-1.833,1.289
				c0,0,14.261-8.372,18.917,2.425l0.006,58.334c0.01,0.015,0.002,0.021,0.004,0.038c0.299,15.946-15.031,24.708-15.031,24.708
				l0.075,0.055L103.744,170.338z"/>
		</g>
	</g>
	<g>
		
			<linearGradient id="SVGID_8_" gradientUnits="userSpaceOnUse" x1="-30.7822" y1="37.6475" x2="-51.3664" y2="20.7373" gradientTransform="matrix(0.2985 -0.512 -0.512 -0.2985 159.4277 107.0605)">
			<stop  offset="0" style="stop-color:#F5F5F5"/>
			<stop  offset="1" style="stop-color:#CCCCCC"/>
		</linearGradient>
		<path fill="url(#SVGID_8_)" d="M138.06,102.585c-4.479-2.611-11.105,0.426-14.795,6.752c-3.703,6.353-3.074,13.601,1.404,16.212
			c4.48,2.612,11.092-0.414,14.795-6.767C143.153,112.457,142.541,105.198,138.06,102.585z"/>
		
			<linearGradient id="SVGID_9_" gradientUnits="userSpaceOnUse" x1="-161.5537" y1="103.46" x2="-172.6099" y2="86.1843" gradientTransform="matrix(0.3664 -0.6284 -0.6284 -0.3664 183.4661 61.5615)">
			<stop  offset="0" style="stop-color:#F5F5F5"/>
			<stop  offset="1" style="stop-color:#CCCCCC"/>
		</linearGradient>
		<path fill="url(#SVGID_9_)" d="M64.944,126.239c-4.956-2.89-8.814-0.39-8.595,5.557l0,0c0.226,5.956,4.426,13.135,9.396,16.033
			l0,0c4.956,2.89,8.807,0.405,8.589-5.546l0,0C74.106,136.33,69.915,129.137,64.944,126.239z"/>
		
			<linearGradient id="SVGID_10_" gradientUnits="userSpaceOnUse" x1="-124.8115" y1="168.3662" x2="-135.8644" y2="151.0957" gradientTransform="matrix(0.3664 -0.6284 -0.6284 -0.3664 179.9719 55.5674)">
			<stop  offset="0" style="stop-color:#F5F5F5"/>
			<stop  offset="1" style="stop-color:#CCCCCC"/>
		</linearGradient>
		<path fill="url(#SVGID_10_)" d="M34.113,73.368c-4.963-2.894-8.812-0.412-8.595,5.558l0,0c0.246,5.942,4.444,13.14,9.399,16.029
			l0,0c4.963,2.894,8.824,0.396,8.573-5.55l0,0C43.279,83.438,39.077,76.262,34.113,73.368z"/>
		
			<linearGradient id="SVGID_11_" gradientUnits="userSpaceOnUse" x1="-270.5654" y1="-41.0337" x2="-281.6224" y2="-58.3105" gradientTransform="matrix(-0.3892 0.6145 -0.6145 -0.3892 -10.6172 197.2502)">
			<stop  offset="0" style="stop-color:#F5F5F5"/>
			<stop  offset="1" style="stop-color:#CCCCCC"/>
		</linearGradient>
		<path fill="url(#SVGID_11_)" d="M123.468,51.512c-4.854-3.073-4.396-7.642,0.983-10.183l0,0
			c5.392-2.541,13.704-2.127,18.558,0.947l0,0c4.854,3.074,4.408,7.644-0.978,10.188l0,0
			C136.642,55.001,128.329,54.591,123.468,51.512z"/>
		
			<linearGradient id="SVGID_12_" gradientUnits="userSpaceOnUse" x1="-268.667" y1="12.0244" x2="-279.7231" y2="-5.251" gradientTransform="matrix(-0.3892 0.6145 -0.6145 -0.3892 -14.752 194.6301)">
			<stop  offset="0" style="stop-color:#F5F5F5"/>
			<stop  offset="1" style="stop-color:#CCCCCC"/>
		</linearGradient>
		<path fill="url(#SVGID_12_)" d="M85.996,29.413c-4.853-3.074-4.411-7.651,0.973-10.19l0,0c5.398-2.537,13.703-2.128,18.563,0.951
			l0,0c4.847,3.069,4.415,7.647-0.993,10.179l0,0C99.167,32.899,90.85,32.487,85.996,29.413z"/>
		
			<linearGradient id="SVGID_13_" gradientUnits="userSpaceOnUse" x1="-218.7051" y1="-7.8008" x2="-229.7613" y2="-25.0764" gradientTransform="matrix(-0.3892 0.6145 -0.6145 -0.3892 -14.9141 199.6711)">
			<stop  offset="0" style="stop-color:#F5F5F5"/>
			<stop  offset="1" style="stop-color:#CCCCCC"/>
		</linearGradient>
		<path fill="url(#SVGID_13_)" d="M78.57,72.861c-4.862-3.08-4.414-7.627,0.977-10.166l0,0c5.387-2.565,13.704-2.129,18.55,0.94l0,0
			c4.853,3.073,4.409,7.624-0.992,10.181l0,0C91.735,76.369,83.417,75.931,78.57,72.861z"/>
		
			<linearGradient id="SVGID_14_" gradientUnits="userSpaceOnUse" x1="-216.8052" y1="44.5469" x2="-227.8609" y2="27.2719" gradientTransform="matrix(-0.3892 0.6145 -0.6145 -0.3892 -18.9941 197.0872)">
			<stop  offset="0" style="stop-color:#F5F5F5"/>
			<stop  offset="1" style="stop-color:#CCCCCC"/>
		</linearGradient>
		<path fill="url(#SVGID_14_)" d="M41.582,51.067c-4.848-3.07-4.416-7.628,0.98-10.162l0,0c5.389-2.564,13.706-2.129,18.552,0.941
			l0,0c4.861,3.078,4.407,7.623-0.987,10.184l0,0C54.736,54.569,46.441,54.145,41.582,51.067z"/>
		
			<linearGradient id="SVGID_15_" gradientUnits="userSpaceOnUse" x1="-241.8423" y1="-21.6416" x2="-252.8987" y2="-38.9175" gradientTransform="matrix(-0.3892 0.6145 -0.6145 -0.3892 -10.6172 197.2502)">
			<stop  offset="0" style="stop-color:#F5F5F5"/>
			<stop  offset="1" style="stop-color:#CCCCCC"/>
		</linearGradient>
		<path fill="url(#SVGID_15_)" d="M100.372,61.615c-4.854-3.073-4.396-7.642,0.983-10.183l0,0
			c5.392-2.541,13.704-2.127,18.558,0.947l0,0c4.854,3.074,4.408,7.644-0.978,10.188l0,0
			C113.545,65.104,105.232,64.694,100.372,61.615z"/>
		
			<linearGradient id="SVGID_16_" gradientUnits="userSpaceOnUse" x1="-239.5181" y1="29.5186" x2="-250.5741" y2="12.2432" gradientTransform="matrix(-0.3892 0.6145 -0.6145 -0.3892 -14.752 194.6301)">
			<stop  offset="0" style="stop-color:#F5F5F5"/>
			<stop  offset="1" style="stop-color:#CCCCCC"/>
		</linearGradient>
		<path fill="url(#SVGID_16_)" d="M63.9,40.516c-4.853-3.074-4.411-7.651,0.973-10.19l0,0c5.398-2.537,13.703-2.128,18.563,0.951
			l0,0c4.847,3.069,4.415,7.647-0.993,10.179l0,0C77.071,44.002,68.754,43.59,63.9,40.516z"/>
	</g>
</g>
</svg>
