<?xml version="1.0" encoding="utf-8"?>
<!-- Generator: Adobe Illustrator 16.0.0, SVG Export Plug-In . SVG Version: 6.00 Build 0)  -->
<!DOCTYPE svg PUBLIC "-//W3C//DTD SVG 1.1//EN" "http://www.w3.org/Graphics/SVG/1.1/DTD/svg11.dtd">
<svg version="1.1" id="Dice4" xmlns="http://www.w3.org/2000/svg" xmlns:xlink="http://www.w3.org/1999/xlink" x="0px" y="0px"
	 width="180.614px" height="180.614px" viewBox="0 0 180.614 180.614" enable-background="new 0 0 180.614 180.614"
	 xml:space="preserve">
<g>
	<g>
		<g>
			
				<linearGradient id="SVGID_1_" gradientUnits="userSpaceOnUse" x1="-798.8467" y1="-14.5273" x2="-930.7211" y2="-115.7935" gradientTransform="matrix(0.3895 0.6143 0.6143 -0.3895 485.0278 602.3682)">
				<stop  offset="0" style="stop-color:#F05123"/>
				<stop  offset="1" style="stop-color:#A61E22"/>
			</linearGradient>
			<path fill="url(#SVGID_1_)" d="M76.207,80.75c0,0,15.613,16.066,16.162,28.526c0,0,2.109-21.123,17.306-30.759
				C109.674,78.517,89.735,89.244,76.207,80.75z"/>
			
				<linearGradient id="SVGID_2_" gradientUnits="userSpaceOnUse" x1="-873.4053" y1="61.3247" x2="-885.9" y2="26.7781" gradientTransform="matrix(0.3895 0.6143 0.6143 -0.3895 485.0356 602.3813)">
				<stop  offset="0" style="stop-color:#F05123"/>
				<stop  offset="1" style="stop-color:#A61E22"/>
			</linearGradient>
			<path fill="url(#SVGID_2_)" d="M151.826,36.634c0,0,7.896,10.171-5.88,18.905c0,0,14.262-8.371,18.918,2.427
				C164.864,57.966,163.163,47.806,151.826,36.634z"/>
			
				<linearGradient id="SVGID_3_" gradientUnits="userSpaceOnUse" x1="-969.9009" y1="-122.5059" x2="-1030.1986" y2="-192.3648" gradientTransform="matrix(0.3895 0.6143 0.6143 -0.3895 485.0454 602.3975)">
				<stop  offset="0" style="stop-color:#F05123"/>
				<stop  offset="1" style="stop-color:#A61E22"/>
			</linearGradient>
			<path fill="url(#SVGID_3_)" d="M15.75,64.846c0,0,7.375-11.326,15.599-7.36c0,0-9.429-8.872-2.292-16.579
				C29.058,40.907,16.822,50.563,15.75,64.846z"/>
			
				<linearGradient id="SVGID_4_" gradientUnits="userSpaceOnUse" x1="-752.4141" y1="-137.1118" x2="-839.1824" y2="-139.3154" gradientTransform="matrix(0.3895 0.6143 0.6143 -0.3895 485.022 602.3906)">
				<stop  offset="0" style="stop-color:#F05123"/>
				<stop  offset="1" style="stop-color:#A61E22"/>
			</linearGradient>
			<path fill="url(#SVGID_4_)" d="M79.368,170.799c0,0,12.885,2.744,12.987-7.986c0,0,3.014,11.141,12.389,6.85
				C104.744,169.663,94.294,177.471,79.368,170.799z"/>
		</g>
		<g>
			
				<linearGradient id="SVGID_5_" gradientUnits="userSpaceOnUse" x1="-434.73" y1="104.3086" x2="76.8551" y2="-477.8402" gradientTransform="matrix(0.3907 0.6161 0.6161 -0.3907 258.3311 140.407)">
				<stop  offset="0" style="stop-color:#F05123"/>
				<stop  offset="1" style="stop-color:#A61E22"/>
			</linearGradient>
			<path fill="url(#SVGID_5_)" d="M147.761,54.223l-39.971,25.345c-5.354,2.399-20.548,8.177-31.51,1.298
				c0,0,0.08,0.093,0.225,0.224L30.516,57.137c0.242,0.09,0.488,0.076,0.741,0.202c0,0-8.479-8.128-2.979-15.572
				c0.607-0.486,1.195-0.963,1.656-1.294l46.81-29.682c4.044-2.034,13.943-6.047,21.904-1.795c0.622,0.342,1.142,0.585,1.537,0.721
				l51.624,26.889C151.809,36.606,158.915,45.805,147.761,54.223z"/>
			
				<linearGradient id="SVGID_6_" gradientUnits="userSpaceOnUse" x1="-230.917" y1="-188.1797" x2="-1724.3353" y2="-943.7083" gradientTransform="matrix(0.2905 0.4582 0.4582 -0.2905 278.3281 207.0122)">
				<stop  offset="0" style="stop-color:#F05123"/>
				<stop  offset="1" style="stop-color:#A61E22"/>
			</linearGradient>
			<path fill="url(#SVGID_6_)" d="M30.516,57.137l45.989,23.952c1.833,1.939,15.004,16.249,15.859,27.762l0.005,54.521
				c-0.624,9.901-12.909,7.306-12.909,7.306c1.837,0.838,3.601,1.431,5.279,1.857c-1.455-0.301-2.767-0.634-3.791-0.943
				c0,0-48.818-25.424-50.22-26.104c-12.45-6.06-14.553-20.555-14.955-24.195l-0.01-56.763
				C16.349,63.648,22.956,54.299,30.516,57.137z"/>
			
				<linearGradient id="SVGID_7_" gradientUnits="userSpaceOnUse" x1="200.2676" y1="-34.6128" x2="38.2004" y2="-153.6826" gradientTransform="matrix(0.4856 0.7659 0.7659 -0.4856 254.7988 18.1245)">
				<stop  offset="0" style="stop-color:#F05123"/>
				<stop  offset="1" style="stop-color:#A61E22"/>
			</linearGradient>
			<path fill="url(#SVGID_7_)" d="M103.744,170.338c-0.84,0.43-1.685,0.801-2.541,1.122c2.302-0.953,3.643-1.924,3.643-1.924
				c-9.389,4.298-12.401-6.84-12.401-6.84c-0.009,0.244-0.05,0.456-0.074,0.675l-0.005-54.521c0.011,0.178,0.066,0.346,0.061,0.515
				c0,0,2.117-21.11,17.314-30.747c0,0-0.722,0.376-1.949,0.949l39.971-25.345c-0.582,0.431-1.165,0.865-1.833,1.289
				c0,0,14.261-8.372,18.917,2.425l0.006,58.334c0.01,0.015,0.002,0.021,0.004,0.038c0.299,15.946-15.031,24.708-15.031,24.708
				l0.075,0.055L103.744,170.338z"/>
		</g>
	</g>
	<g>
		
			<linearGradient id="SVGID_8_" gradientUnits="userSpaceOnUse" x1="-193.2998" y1="-128.1416" x2="-213.8806" y2="-145.049" gradientTransform="matrix(-0.2893 0.4568 -0.4568 -0.2893 30.4121 135.0352)">
			<stop  offset="0" style="stop-color:#F5F5F5"/>
			<stop  offset="1" style="stop-color:#CCCCCC"/>
		</linearGradient>
		<path fill="url(#SVGID_8_)" d="M139.558,93.667c-3.994-2.53-4.329-9.165-0.753-14.81c3.587-5.664,9.729-8.197,13.724-5.667
			c3.988,2.526,4.329,9.166,0.741,14.83C149.694,93.665,143.546,96.193,139.558,93.667z"/>
		
			<linearGradient id="SVGID_9_" gradientUnits="userSpaceOnUse" x1="-67.98" y1="-131.0273" x2="-88.5599" y2="-147.934" gradientTransform="matrix(-0.2893 0.4568 -0.4568 -0.2893 25.9443 142.4619)">
			<stop  offset="0" style="stop-color:#F5F5F5"/>
			<stop  offset="1" style="stop-color:#CCCCCC"/>
		</linearGradient>
		<path fill="url(#SVGID_9_)" d="M100.137,159.175c-3.988-2.526-4.308-9.172-0.732-14.816c3.578-5.648,9.713-8.185,13.701-5.659
			c3.994,2.53,4.328,9.164,0.75,14.813C110.281,159.156,104.13,161.705,100.137,159.175z"/>
		
			<linearGradient id="SVGID_10_" gradientUnits="userSpaceOnUse" x1="-178.4033" y1="58.8975" x2="-166.6601" y2="25.0457" gradientTransform="matrix(-0.3892 0.6145 -0.6145 -0.3892 -11.2676 197.342)">
			<stop  offset="0" style="stop-color:#F5F5F5"/>
			<stop  offset="1" style="stop-color:#CCCCCC"/>
		</linearGradient>
		<path fill="url(#SVGID_10_)" d="M32.66,89.945c-4.869-3.084-8.334-10.235-7.732-15.948l0,0c0.612-5.729,5.056-7.851,9.932-4.763
			l0,0c4.872,3.086,8.34,10.219,7.728,15.949l0,0C41.994,90.901,37.542,93.038,32.66,89.945z"/>
		
			<linearGradient id="SVGID_11_" gradientUnits="userSpaceOnUse" x1="-133.6592" y1="14.1831" x2="-144.7142" y2="-14.1458" gradientTransform="matrix(-0.3892 0.6145 -0.6145 -0.3892 -11.3926 197.4192)">
			<stop  offset="0" style="stop-color:#F5F5F5"/>
			<stop  offset="1" style="stop-color:#CCCCCC"/>
		</linearGradient>
		<path fill="url(#SVGID_11_)" d="M50.309,123.924c-4.876-3.088-8.35-10.225-7.747-15.939l0,0c0.62-5.746,5.065-7.866,9.933-4.783
			l0,0c4.883,3.093,8.341,10.219,7.729,15.97l0,0C59.621,124.886,55.185,127.012,50.309,123.924z"/>
		
			<linearGradient id="SVGID_12_" gradientUnits="userSpaceOnUse" x1="-106.6987" y1="-24.2773" x2="-119.1368" y2="-62.2808" gradientTransform="matrix(-0.3892 0.6145 -0.6145 -0.3892 -11.2676 197.342)">
			<stop  offset="0" style="stop-color:#F5F5F5"/>
			<stop  offset="1" style="stop-color:#CCCCCC"/>
		</linearGradient>
		<path fill="url(#SVGID_12_)" d="M68.265,157.708c-4.89-3.097-8.34-10.24-7.747-15.94l0,0c0.613-5.747,5.046-7.854,9.922-4.766l0,0
			c4.883,3.093,8.366,10.213,7.739,15.952l0,0C77.586,158.654,73.14,160.796,68.265,157.708z"/>
		
			<linearGradient id="SVGID_13_" gradientUnits="userSpaceOnUse" x1="-153.6494" y1="7.019" x2="-166.0882" y2="-30.9863" gradientTransform="matrix(-0.3892 0.6145 -0.6145 -0.3892 -11.3896 192.0959)">
			<stop  offset="0" style="stop-color:#F5F5F5"/>
			<stop  offset="1" style="stop-color:#CCCCCC"/>
		</linearGradient>
		<path fill="url(#SVGID_13_)" d="M67.185,111.428c-4.884-3.094-8.347-10.223-7.754-15.943l0,0c0.609-5.711,5.055-7.852,9.922-4.769
			l0,0c4.897,3.102,8.347,10.244,7.753,15.964l0,0C76.503,112.394,72.059,114.516,67.185,111.428z"/>
		
			<linearGradient id="SVGID_14_" gradientUnits="userSpaceOnUse" x1="-108.127" y1="26.9199" x2="-120.5625" y2="-11.0758" gradientTransform="matrix(-0.3892 0.6145 -0.6145 -0.3892 -15.2188 194.6814)">
			<stop  offset="0" style="stop-color:#F5F5F5"/>
			<stop  offset="1" style="stop-color:#CCCCCC"/>
		</linearGradient>
		<path fill="url(#SVGID_14_)" d="M33.389,134.232c-4.867-3.083-8.342-10.22-7.737-15.934l0,0c0.61-5.733,5.06-7.849,9.929-4.765
			l0,0c4.882,3.093,8.342,10.217,7.736,15.954l0,0C42.715,135.204,38.27,137.324,33.389,134.232z"/>
		
			<linearGradient id="SVGID_15_" gradientUnits="userSpaceOnUse" x1="-267.2378" y1="-35.5156" x2="-278.2948" y2="-52.7924" gradientTransform="matrix(-0.3892 0.6145 -0.6145 -0.3892 -10.6172 197.2502)">
			<stop  offset="0" style="stop-color:#F5F5F5"/>
			<stop  offset="1" style="stop-color:#CCCCCC"/>
		</linearGradient>
		<path fill="url(#SVGID_15_)" d="M118.783,51.409c-4.854-3.074-4.396-7.641,0.983-10.183l0,0
			c5.392-2.541,13.704-2.127,18.558,0.947l0,0c4.854,3.074,4.408,7.644-0.978,10.188l0,0
			C131.957,54.898,123.643,54.488,118.783,51.409z"/>
		
			<linearGradient id="SVGID_16_" gradientUnits="userSpaceOnUse" x1="-267.2393" y1="17.1162" x2="-278.2956" y2="-0.1597" gradientTransform="matrix(-0.3892 0.6145 -0.6145 -0.3892 -14.752 194.6301)">
			<stop  offset="0" style="stop-color:#F5F5F5"/>
			<stop  offset="1" style="stop-color:#CCCCCC"/>
		</linearGradient>
		<path fill="url(#SVGID_16_)" d="M82.311,28.308c-4.853-3.074-4.411-7.65,0.973-10.19l0,0c5.398-2.537,13.703-2.128,18.563,0.951
			l0,0c4.847,3.069,4.415,7.648-0.993,10.178l0,0C95.482,31.794,87.166,31.383,82.311,28.308z"/>
		
			<linearGradient id="SVGID_17_" gradientUnits="userSpaceOnUse" x1="-220.5322" y1="-10.4199" x2="-231.5887" y2="-27.696" gradientTransform="matrix(-0.3892 0.6145 -0.6145 -0.3892 -14.9141 199.6711)">
			<stop  offset="0" style="stop-color:#F5F5F5"/>
			<stop  offset="1" style="stop-color:#CCCCCC"/>
		</linearGradient>
		<path fill="url(#SVGID_17_)" d="M80.891,72.758c-4.862-3.08-4.414-7.627,0.977-10.166l0,0c5.387-2.566,13.704-2.129,18.55,0.94
			l0,0c4.853,3.074,4.409,7.625-0.992,10.181l0,0C94.056,76.266,85.738,75.828,80.891,72.758z"/>
		
			<linearGradient id="SVGID_18_" gradientUnits="userSpaceOnUse" x1="-220.5313" y1="41.501" x2="-231.587" y2="24.226" gradientTransform="matrix(-0.3892 0.6145 -0.6145 -0.3892 -18.9941 197.0872)">
			<stop  offset="0" style="stop-color:#F5F5F5"/>
			<stop  offset="1" style="stop-color:#CCCCCC"/>
		</linearGradient>
		<path fill="url(#SVGID_18_)" d="M44.904,49.963c-4.848-3.071-4.416-7.628,0.98-10.163l0,0c5.389-2.564,13.706-2.128,18.552,0.941
			l0,0c4.861,3.079,4.407,7.624-0.987,10.184l0,0C58.058,53.464,49.763,53.041,44.904,49.963z"/>
	</g>
</g>
</svg>
