<?xml version="1.0" encoding="utf-8"?>
<!-- Generator: Adobe Illustrator 16.0.0, SVG Export Plug-In . SVG Version: 6.00 Build 0)  -->
<!DOCTYPE svg PUBLIC "-//W3C//DTD SVG 1.1//EN" "http://www.w3.org/Graphics/SVG/1.1/DTD/svg11.dtd">
<svg version="1.1" id="Dice5" xmlns="http://www.w3.org/2000/svg" xmlns:xlink="http://www.w3.org/1999/xlink" x="0px" y="0px"
	 width="180.614px" height="180.614px" viewBox="0 0 180.614 180.614" enable-background="new 0 0 180.614 180.614"
	 xml:space="preserve">
<g>
	<g>
		<g>
			
				<linearGradient id="SVGID_1_" gradientUnits="userSpaceOnUse" x1="-798.8467" y1="-14.5273" x2="-930.7211" y2="-115.7935" gradientTransform="matrix(0.3895 0.6143 0.6143 -0.3895 485.0278 602.3682)">
				<stop  offset="0" style="stop-color:#F05123"/>
				<stop  offset="1" style="stop-color:#A61E22"/>
			</linearGradient>
			<path fill="url(#SVGID_1_)" d="M76.207,80.75c0,0,15.613,16.066,16.162,28.526c0,0,2.109-21.123,17.306-30.759
				C109.674,78.517,89.735,89.244,76.207,80.75z"/>
			
				<linearGradient id="SVGID_2_" gradientUnits="userSpaceOnUse" x1="-873.4053" y1="61.3247" x2="-885.9" y2="26.7781" gradientTransform="matrix(0.3895 0.6143 0.6143 -0.3895 485.0356 602.3813)">
				<stop  offset="0" style="stop-color:#F05123"/>
				<stop  offset="1" style="stop-color:#A61E22"/>
			</linearGradient>
			<path fill="url(#SVGID_2_)" d="M151.826,36.634c0,0,7.896,10.171-5.88,18.905c0,0,14.262-8.371,18.918,2.427
				C164.864,57.966,163.163,47.806,151.826,36.634z"/>
			
				<linearGradient id="SVGID_3_" gradientUnits="userSpaceOnUse" x1="-969.9009" y1="-122.5059" x2="-1030.1986" y2="-192.3648" gradientTransform="matrix(0.3895 0.6143 0.6143 -0.3895 485.0454 602.3975)">
				<stop  offset="0" style="stop-color:#F05123"/>
				<stop  offset="1" style="stop-color:#A61E22"/>
			</linearGradient>
			<path fill="url(#SVGID_3_)" d="M15.75,64.846c0,0,7.375-11.326,15.599-7.36c0,0-9.429-8.872-2.292-16.579
				C29.058,40.907,16.822,50.563,15.75,64.846z"/>
			
				<linearGradient id="SVGID_4_" gradientUnits="userSpaceOnUse" x1="-752.4141" y1="-137.1118" x2="-839.1824" y2="-139.3154" gradientTransform="matrix(0.3895 0.6143 0.6143 -0.3895 485.022 602.3906)">
				<stop  offset="0" style="stop-color:#F05123"/>
				<stop  offset="1" style="stop-color:#A61E22"/>
			</linearGradient>
			<path fill="url(#SVGID_4_)" d="M79.368,170.799c0,0,12.885,2.744,12.987-7.986c0,0,3.014,11.141,12.389,6.85
				C104.744,169.663,94.294,177.471,79.368,170.799z"/>
		</g>
		<g>
			
				<linearGradient id="SVGID_5_" gradientUnits="userSpaceOnUse" x1="-434.73" y1="104.3086" x2="76.8551" y2="-477.8402" gradientTransform="matrix(0.3907 0.6161 0.6161 -0.3907 258.3311 140.407)">
				<stop  offset="0" style="stop-color:#F05123"/>
				<stop  offset="1" style="stop-color:#A61E22"/>
			</linearGradient>
			<path fill="url(#SVGID_5_)" d="M147.761,54.223l-39.971,25.345c-5.354,2.399-20.548,8.177-31.51,1.298
				c0,0,0.08,0.093,0.225,0.224L30.516,57.137c0.242,0.09,0.488,0.076,0.741,0.202c0,0-8.479-8.128-2.979-15.572
				c0.607-0.486,1.195-0.963,1.656-1.294l46.81-29.682c4.044-2.034,13.943-6.047,21.904-1.795c0.622,0.342,1.142,0.585,1.537,0.721
				l51.624,26.889C151.809,36.606,158.915,45.805,147.761,54.223z"/>
			
				<linearGradient id="SVGID_6_" gradientUnits="userSpaceOnUse" x1="-230.917" y1="-188.1797" x2="-1724.3353" y2="-943.7083" gradientTransform="matrix(0.2905 0.4582 0.4582 -0.2905 278.3281 207.0122)">
				<stop  offset="0" style="stop-color:#F05123"/>
				<stop  offset="1" style="stop-color:#A61E22"/>
			</linearGradient>
			<path fill="url(#SVGID_6_)" d="M30.516,57.137l45.989,23.952c1.833,1.939,15.004,16.249,15.859,27.762l0.005,54.521
				c-0.624,9.901-12.909,7.306-12.909,7.306c1.837,0.838,3.601,1.431,5.279,1.857c-1.455-0.301-2.767-0.634-3.791-0.943
				c0,0-48.818-25.424-50.22-26.104c-12.45-6.06-14.553-20.555-14.955-24.195l-0.01-56.763
				C16.349,63.648,22.956,54.299,30.516,57.137z"/>
			
				<linearGradient id="SVGID_7_" gradientUnits="userSpaceOnUse" x1="200.2676" y1="-34.6128" x2="38.2004" y2="-153.6826" gradientTransform="matrix(0.4856 0.7659 0.7659 -0.4856 254.7988 18.1245)">
				<stop  offset="0" style="stop-color:#F05123"/>
				<stop  offset="1" style="stop-color:#A61E22"/>
			</linearGradient>
			<path fill="url(#SVGID_7_)" d="M103.744,170.338c-0.84,0.43-1.685,0.801-2.541,1.122c2.302-0.953,3.643-1.924,3.643-1.924
				c-9.389,4.298-12.401-6.84-12.401-6.84c-0.009,0.244-0.05,0.456-0.074,0.675l-0.005-54.521c0.011,0.178,0.066,0.346,0.061,0.515
				c0,0,2.117-21.11,17.314-30.747c0,0-0.722,0.376-1.949,0.949l39.971-25.345c-0.582,0.431-1.165,0.865-1.833,1.289
				c0,0,14.261-8.372,18.917,2.425l0.006,58.334c0.01,0.015,0.002,0.021,0.004,0.038c0.299,15.946-15.031,24.708-15.031,24.708
				l0.075,0.055L103.744,170.338z"/>
		</g>
	</g>
	<g>
		
			<linearGradient id="SVGID_8_" gradientUnits="userSpaceOnUse" x1="596.4736" y1="-521.6758" x2="575.8939" y2="-538.5823" gradientTransform="matrix(-0.2707 -0.4681 0.4681 -0.2707 478.3447 281.0083)">
			<stop  offset="0" style="stop-color:#F5F5F5"/>
			<stop  offset="1" style="stop-color:#CCCCCC"/>
		</linearGradient>
		<path fill="url(#SVGID_8_)" d="M66.434,133.776c4.094-2.368,10.127,0.409,13.473,6.194c3.356,5.803,2.756,12.419-1.338,14.787
			c-4.087,2.363-10.128-0.411-13.484-6.215C61.738,142.758,62.347,136.139,66.434,133.776z"/>
		
			<linearGradient id="SVGID_9_" gradientUnits="userSpaceOnUse" x1="721.7939" y1="-524.5649" x2="701.2145" y2="-541.4712" gradientTransform="matrix(-0.2707 -0.4681 0.4681 -0.2707 473.834 273.6079)">
			<stop  offset="0" style="stop-color:#F5F5F5"/>
			<stop  offset="1" style="stop-color:#CCCCCC"/>
		</linearGradient>
		<path fill="url(#SVGID_9_)" d="M26.65,68.486c4.086-2.363,10.123,0.434,13.469,6.218c3.347,5.788,2.752,12.399-1.334,14.763
			c-4.092,2.367-10.126-0.411-13.474-6.198C21.966,77.483,22.559,70.852,26.65,68.486z"/>
		
			<linearGradient id="SVGID_10_" gradientUnits="userSpaceOnUse" x1="408.6592" y1="-233.6304" x2="420.403" y2="-267.4836" gradientTransform="matrix(-0.3642 -0.6297 0.6297 -0.3642 442.4446 215.2021)">
			<stop  offset="0" style="stop-color:#F5F5F5"/>
			<stop  offset="1" style="stop-color:#CCCCCC"/>
		</linearGradient>
		<path fill="url(#SVGID_10_)" d="M119.267,40.772c4.989-2.886,12.933-2.645,17.716,0.536l0,0c4.795,3.197,4.614,8.119-0.383,11.009
			l0,0c-4.991,2.888-12.919,2.655-17.714-0.542l0,0C114.094,48.599,114.265,43.666,119.267,40.772z"/>
		
			<linearGradient id="SVGID_11_" gradientUnits="userSpaceOnUse" x1="453.4023" y1="-278.3457" x2="442.3473" y2="-306.6746" gradientTransform="matrix(-0.3642 -0.6297 0.6297 -0.3642 442.4343 215.0557)">
			<stop  offset="0" style="stop-color:#F5F5F5"/>
			<stop  offset="1" style="stop-color:#CCCCCC"/>
		</linearGradient>
		<path fill="url(#SVGID_11_)" d="M80.979,40.666c4.995-2.889,12.929-2.66,17.714,0.521l0,0c4.805,3.211,4.624,8.133-0.363,11.018
			l0,0c-5.005,2.895-12.922,2.656-17.733-0.552l0,0C75.812,48.472,75.982,43.556,80.979,40.666z"/>
		
			<linearGradient id="SVGID_12_" gradientUnits="userSpaceOnUse" x1="480.3652" y1="-316.8096" x2="467.9271" y2="-354.813" gradientTransform="matrix(-0.3642 -0.6297 0.6297 -0.3642 442.4446 215.2021)">
			<stop  offset="0" style="stop-color:#F5F5F5"/>
			<stop  offset="1" style="stop-color:#CCCCCC"/>
		</linearGradient>
		<path fill="url(#SVGID_12_)" d="M42.719,40.922c5.011-2.898,12.939-2.645,17.716,0.522l0,0c4.81,3.207,4.622,8.109-0.375,11l0,0
			c-5.002,2.894-12.926,2.682-17.721-0.533l0,0C37.562,48.745,37.724,43.811,42.719,40.922z"/>
		
			<linearGradient id="SVGID_13_" gradientUnits="userSpaceOnUse" x1="433.4141" y1="-285.5093" x2="420.9753" y2="-323.5146" gradientTransform="matrix(-0.3642 -0.6297 0.6297 -0.3642 447.1501 217.5254)">
			<stop  offset="0" style="stop-color:#F5F5F5"/>
			<stop  offset="1" style="stop-color:#CCCCCC"/>
		</linearGradient>
		<path fill="url(#SVGID_13_)" d="M84.231,61.411c5.004-2.895,12.928-2.659,17.722,0.518l0,0c4.777,3.186,4.615,8.118-0.372,11.003
			l0,0c-5.019,2.902-12.946,2.648-17.739-0.528l0,0C79.057,69.221,79.236,64.3,84.231,61.411z"/>
		
			<linearGradient id="SVGID_14_" gradientUnits="userSpaceOnUse" x1="478.9346" y1="-265.6099" x2="466.4986" y2="-303.6069" gradientTransform="matrix(-0.3642 -0.6297 0.6297 -0.3642 446.6335 212.9336)">
			<stop  offset="0" style="stop-color:#F5F5F5"/>
			<stop  offset="1" style="stop-color:#CCCCCC"/>
		</linearGradient>
		<path fill="url(#SVGID_14_)" d="M79.684,20.896c4.987-2.885,12.921-2.656,17.705,0.525l0,0c4.797,3.199,4.61,8.121-0.379,11.007
			l0,0c-5.003,2.894-12.919,2.657-17.724-0.537l0,0C74.501,28.71,74.683,23.789,79.684,20.896z"/>
		
			<linearGradient id="SVGID_15_" gradientUnits="userSpaceOnUse" x1="319.8242" y1="-328.0444" x2="308.7672" y2="-345.3212" gradientTransform="matrix(-0.3642 -0.6297 0.6297 -0.3642 442.2249 215.8213)">
			<stop  offset="0" style="stop-color:#F5F5F5"/>
			<stop  offset="1" style="stop-color:#CCCCCC"/>
		</linearGradient>
		<path fill="url(#SVGID_15_)" d="M113.508,134.946c4.973-2.876,8.809-0.355,8.566,5.592l0,0c-0.248,5.955-4.466,13.13-9.438,16.006
			l0,0c-4.975,2.877-8.816,0.363-8.575-5.588l0,0C104.311,145.004,108.526,137.827,113.508,134.946z"/>
		
			<linearGradient id="SVGID_16_" gradientUnits="userSpaceOnUse" x1="319.8213" y1="-275.4126" x2="308.7649" y2="-292.6885" gradientTransform="matrix(-0.3642 -0.6297 0.6297 -0.3642 446.4626 213.3701)">
			<stop  offset="0" style="stop-color:#F5F5F5"/>
			<stop  offset="1" style="stop-color:#CCCCCC"/>
		</linearGradient>
		<path fill="url(#SVGID_16_)" d="M150.879,113.332c4.972-2.876,8.825-0.364,8.581,5.584l0,0c-0.255,5.959-4.465,13.13-9.446,16.01
			l0,0c-4.966,2.872-8.823,0.368-8.56-5.596l0,0C141.687,123.387,145.904,116.208,150.879,113.332z"/>
		
			<linearGradient id="SVGID_17_" gradientUnits="userSpaceOnUse" x1="366.5283" y1="-302.9478" x2="355.4718" y2="-320.2239" gradientTransform="matrix(-0.3642 -0.6297 0.6297 -0.3642 442.0696 210.8916)">
			<stop  offset="0" style="stop-color:#F5F5F5"/>
			<stop  offset="1" style="stop-color:#CCCCCC"/>
		</linearGradient>
		<path fill="url(#SVGID_17_)" d="M112.147,91.476c4.981-2.882,8.806-0.378,8.557,5.575l0,0c-0.223,5.963-4.463,13.132-9.43,16.004
			l0,0c-4.974,2.877-8.8,0.373-8.562-5.599l0,0C102.939,101.517,107.181,94.348,112.147,91.476z"/>
		
			<linearGradient id="SVGID_18_" gradientUnits="userSpaceOnUse" x1="366.5332" y1="-251.0288" x2="355.4774" y2="-268.3037" gradientTransform="matrix(-0.3642 -0.6297 0.6297 -0.3642 446.2512 208.4736)">
			<stop  offset="0" style="stop-color:#F5F5F5"/>
			<stop  offset="1" style="stop-color:#CCCCCC"/>
		</linearGradient>
		<path fill="url(#SVGID_18_)" d="M149.023,70.148c4.967-2.872,8.807-0.378,8.552,5.579l0,0c-0.226,5.963-4.465,13.132-9.432,16.005
			l0,0c-4.979,2.88-8.798,0.371-8.567-5.596l0,0C139.826,80.183,144.045,73.027,149.023,70.148z"/>
	</g>
</g>
</svg>
